<svg width="24" height="24" viewBox="0 0 24 24" fill="none" xmlns="http://www.w3.org/2000/svg">
<ellipse opacity="0.5" cx="12" cy="20" rx="4" ry="2" fill="#9BA6B2"/>
<path fill-rule="evenodd" clip-rule="evenodd" d="M12.0038 2C15.7135 2.01807 18.75 5.14514 18.75 9C18.75 11.1838 17.805 13.3662 16.5846 14.8939L16.4998 15L12.5532 19.7051C12.5339 19.7295 12.5137 19.7527 12.4925 19.7744C12.4741 19.7932 12.4553 19.811 12.4355 19.8278C12.3913 19.8654 12.3442 19.8975 12.2943 19.9233C12.2797 19.9312 12.2646 19.9385 12.2491 19.9451L12.218 19.9575L12.185 19.9691C12.1205 19.9896 12.0546 20 11.9882 20C11.8832 20 11.7792 19.974 11.6822 19.9233C11.5852 19.8727 11.4971 19.7986 11.4232 19.7051L7.50016 15L7.40081 14.8755C6.18227 13.3513 5.25 11.1844 5.25 9C5.25 5.13403 8.27187 2 12.0038 2ZM12 11C13.5533 11 14.8125 9.7408 14.8125 8.1875C14.8125 6.6342 13.5533 5.375 12 5.375C10.4467 5.375 9.1875 6.6342 9.1875 8.1875C9.1875 9.7408 10.4467 11 12 11Z" fill="#9BA6B2"/>
</svg>
