<svg width="14" height="14" viewBox="0 0 14 14" fill="none" xmlns="http://www.w3.org/2000/svg">
<path fill-rule="evenodd" clip-rule="evenodd" d="M5.98925 9.10311L5.98925 12.948C5.98455 13.0875 6.00776 13.2265 6.05745 13.3564C6.10715 13.4864 6.18228 13.6046 6.27823 13.7037C6.37254 13.801 6.4853 13.8774 6.60955 13.9282C6.7338 13.9791 6.86691 14.0034 7.00069 13.9996C7.13446 14.0034 7.26757 13.9791 7.39182 13.9282C7.51607 13.8774 7.62883 13.801 7.72314 13.7037C7.91807 13.5013 8.03254 13.232 8.0443 12.948L8.04362 9.10311L13.5 5.58638V4.20591L8.04362 5.94815L8.04362 2.10331L9.39196 1.05165V0L7.01644 0.689884L4.60872 0V1.05165L5.98925 2.10331L5.98925 5.94815L0.5 4.20661V5.58638L5.98925 9.10311Z" fill="#9BA6B2"/>
</svg>
